<mxfile host="app.diagrams.net" modified="2024-04-06T15:42:53.620Z" agent="Mozilla/5.0 (Windows NT 10.0; Win64; x64) AppleWebKit/537.36 (KHTML, like Gecko) Chrome/123.0.0.0 Safari/537.36" etag="x5FswtbHnI4YvGEUlBm4" version="24.2.2" type="device">
  <diagram name="Page-1" id="90a13364-a465-7bf4-72fc-28e22215d7a0">
    <mxGraphModel dx="1444" dy="1097" grid="1" gridSize="10" guides="1" tooltips="1" connect="1" arrows="1" fold="1" page="1" pageScale="1.5" pageWidth="1169" pageHeight="826" background="none" math="0" shadow="0">
      <root>
        <mxCell id="0" style=";html=1;" />
        <mxCell id="1" style=";html=1;" parent="0" />
        <mxCell id="NFD3q7oHZrYZHhK99gPO-40" value="home_animal" style="swimlane;whiteSpace=wrap;html=1;align=center;fontStyle=1;fontSize=19;strokeWidth=3;" parent="1" vertex="1">
          <mxGeometry x="40" y="20" width="250" height="520" as="geometry">
            <mxRectangle x="50" y="40" width="120" height="30" as="alternateBounds" />
          </mxGeometry>
        </mxCell>
        <mxCell id="NFD3q7oHZrYZHhK99gPO-43" value="name: String" style="text;html=1;align=center;verticalAlign=middle;whiteSpace=wrap;rounded=0;fontStyle=0;fontSize=17;" parent="NFD3q7oHZrYZHhK99gPO-40" vertex="1">
          <mxGeometry x="30" y="30" width="140" height="30" as="geometry" />
        </mxCell>
        <mxCell id="NFD3q7oHZrYZHhK99gPO-44" value="livePlace:String" style="text;html=1;align=center;verticalAlign=middle;whiteSpace=wrap;rounded=0;fontSize=17;fontStyle=0" parent="NFD3q7oHZrYZHhK99gPO-40" vertex="1">
          <mxGeometry x="50" y="60" width="110" height="30" as="geometry" />
        </mxCell>
        <mxCell id="NFD3q7oHZrYZHhK99gPO-45" value="" style="line;strokeWidth=4;html=1;perimeter=backbonePerimeter;points=[];outlineConnect=0;" parent="NFD3q7oHZrYZHhK99gPO-40" vertex="1">
          <mxGeometry y="200" width="220" height="10" as="geometry" />
        </mxCell>
        <mxCell id="NFD3q7oHZrYZHhK99gPO-46" value="cats:List&amp;lt;cat&amp;gt;" style="text;html=1;align=center;verticalAlign=middle;whiteSpace=wrap;rounded=0;fontSize=17;fontStyle=0" parent="NFD3q7oHZrYZHhK99gPO-40" vertex="1">
          <mxGeometry x="30" y="90" width="130" height="30" as="geometry" />
        </mxCell>
        <mxCell id="NFD3q7oHZrYZHhK99gPO-47" value="dogs:List&amp;lt;dog&amp;gt;" style="text;html=1;align=center;verticalAlign=middle;whiteSpace=wrap;rounded=0;fontSize=17;" parent="NFD3q7oHZrYZHhK99gPO-40" vertex="1">
          <mxGeometry x="50" y="120" width="100" height="30" as="geometry" />
        </mxCell>
        <mxCell id="NFD3q7oHZrYZHhK99gPO-48" value="hamsters:list(hamster)" style="text;html=1;align=center;verticalAlign=middle;whiteSpace=wrap;rounded=0;fontSize=17;" parent="NFD3q7oHZrYZHhK99gPO-40" vertex="1">
          <mxGeometry x="60" y="160" width="110" height="30" as="geometry" />
        </mxCell>
        <mxCell id="NFD3q7oHZrYZHhK99gPO-95" value="get_Name(): String" style="text;html=1;align=center;verticalAlign=middle;whiteSpace=wrap;rounded=0;fontSize=16;" parent="NFD3q7oHZrYZHhK99gPO-40" vertex="1">
          <mxGeometry x="30" y="210" width="150" height="30" as="geometry" />
        </mxCell>
        <mxCell id="NFD3q7oHZrYZHhK99gPO-96" value="set_Name(String): void" style="text;html=1;align=center;verticalAlign=middle;whiteSpace=wrap;rounded=0;fontSize=15;" parent="NFD3q7oHZrYZHhK99gPO-40" vertex="1">
          <mxGeometry x="10" y="240" width="180" height="30" as="geometry" />
        </mxCell>
        <mxCell id="NFD3q7oHZrYZHhK99gPO-97" value="set_HOME_ID(string): void" style="text;html=1;align=center;verticalAlign=middle;whiteSpace=wrap;rounded=0;fontSize=14;" parent="NFD3q7oHZrYZHhK99gPO-40" vertex="1">
          <mxGeometry x="15" y="270" width="190" height="30" as="geometry" />
        </mxCell>
        <mxCell id="NFD3q7oHZrYZHhK99gPO-99" value="get_HOME_ID(string): void" style="text;html=1;align=center;verticalAlign=middle;whiteSpace=wrap;rounded=0;fontSize=13;" parent="NFD3q7oHZrYZHhK99gPO-40" vertex="1">
          <mxGeometry x="15" y="300" width="180" height="30" as="geometry" />
        </mxCell>
        <mxCell id="NFD3q7oHZrYZHhK99gPO-100" value="add_Dog(Dog): void" style="text;html=1;align=center;verticalAlign=middle;whiteSpace=wrap;rounded=0;fontSize=14;" parent="NFD3q7oHZrYZHhK99gPO-40" vertex="1">
          <mxGeometry x="20" y="330" width="160" height="30" as="geometry" />
        </mxCell>
        <mxCell id="NFD3q7oHZrYZHhK99gPO-126" value="&lt;font style=&quot;font-size: 14px;&quot;&gt;remove_Dog(Dog): void&lt;/font&gt;" style="text;html=1;align=center;verticalAlign=middle;whiteSpace=wrap;rounded=0;" parent="NFD3q7oHZrYZHhK99gPO-40" vertex="1">
          <mxGeometry x="5" y="360" width="200" height="30" as="geometry" />
        </mxCell>
        <mxCell id="NFD3q7oHZrYZHhK99gPO-128" value="add_Cat(Cat): void" style="text;html=1;align=center;verticalAlign=middle;whiteSpace=wrap;rounded=0;fontSize=14;" parent="NFD3q7oHZrYZHhK99gPO-40" vertex="1">
          <mxGeometry x="25" y="390" width="160" height="30" as="geometry" />
        </mxCell>
        <mxCell id="NFD3q7oHZrYZHhK99gPO-129" value="&lt;font style=&quot;font-size: 14px;&quot;&gt;remove_Cat(Cat): void&lt;/font&gt;" style="text;html=1;align=center;verticalAlign=middle;whiteSpace=wrap;rounded=0;" parent="NFD3q7oHZrYZHhK99gPO-40" vertex="1">
          <mxGeometry x="15" y="420" width="200" height="30" as="geometry" />
        </mxCell>
        <mxCell id="NFD3q7oHZrYZHhK99gPO-130" value="add_Hamster(Hamster): void" style="text;html=1;align=center;verticalAlign=middle;whiteSpace=wrap;rounded=0;fontSize=14;" parent="NFD3q7oHZrYZHhK99gPO-40" vertex="1">
          <mxGeometry x="17.5" y="450" width="185" height="30" as="geometry" />
        </mxCell>
        <mxCell id="NFD3q7oHZrYZHhK99gPO-147" value="&lt;font style=&quot;font-size: 14px;&quot;&gt;remove_Hamster(Hamster): void&lt;/font&gt;" style="text;html=1;align=center;verticalAlign=middle;whiteSpace=wrap;rounded=0;" parent="NFD3q7oHZrYZHhK99gPO-40" vertex="1">
          <mxGeometry x="5" y="480" width="225" height="30" as="geometry" />
        </mxCell>
        <mxCell id="NFD3q7oHZrYZHhK99gPO-57" value="animal_classes" style="swimlane;whiteSpace=wrap;html=1;fontSize=22;strokeWidth=3;align=center;" parent="1" vertex="1">
          <mxGeometry x="450" y="30" width="220" height="430" as="geometry" />
        </mxCell>
        <mxCell id="NFD3q7oHZrYZHhK99gPO-60" value="" style="line;strokeWidth=4;html=1;perimeter=backbonePerimeter;points=[];outlineConnect=0;" parent="NFD3q7oHZrYZHhK99gPO-57" vertex="1">
          <mxGeometry y="200" width="220" height="10" as="geometry" />
        </mxCell>
        <mxCell id="NFD3q7oHZrYZHhK99gPO-82" value="name: String" style="text;html=1;align=center;verticalAlign=middle;whiteSpace=wrap;rounded=0;fontStyle=0;fontSize=17;" parent="NFD3q7oHZrYZHhK99gPO-57" vertex="1">
          <mxGeometry x="42.5" y="30" width="140" height="30" as="geometry" />
        </mxCell>
        <mxCell id="NFD3q7oHZrYZHhK99gPO-89" value="Home_Animals:List: &amp;lt;Home_Animal&amp;gt;" style="text;html=1;align=center;verticalAlign=middle;whiteSpace=wrap;rounded=0;fontSize=16;" parent="NFD3q7oHZrYZHhK99gPO-57" vertex="1">
          <mxGeometry x="7.5" y="60" width="205" height="60" as="geometry" />
        </mxCell>
        <mxCell id="NFD3q7oHZrYZHhK99gPO-90" value="Pack_Animals:List:&lt;div&gt;&amp;lt;Pack_Animal&amp;gt;&lt;/div&gt;" style="text;html=1;align=center;verticalAlign=middle;whiteSpace=wrap;rounded=0;fontSize=15;fontStyle=0" parent="NFD3q7oHZrYZHhK99gPO-57" vertex="1">
          <mxGeometry x="42.5" y="120" width="135" height="70" as="geometry" />
        </mxCell>
        <mxCell id="NFD3q7oHZrYZHhK99gPO-113" value="get_Name(): String" style="text;html=1;align=center;verticalAlign=middle;whiteSpace=wrap;rounded=0;fontSize=16;" parent="NFD3q7oHZrYZHhK99gPO-57" vertex="1">
          <mxGeometry x="35" y="220" width="150" height="30" as="geometry" />
        </mxCell>
        <mxCell id="NFD3q7oHZrYZHhK99gPO-150" value="&lt;font style=&quot;font-size: 15px;&quot;&gt;set_Name(String):void&lt;/font&gt;" style="text;html=1;align=center;verticalAlign=middle;whiteSpace=wrap;rounded=0;" parent="NFD3q7oHZrYZHhK99gPO-57" vertex="1">
          <mxGeometry x="30" y="250" width="170" height="30" as="geometry" />
        </mxCell>
        <mxCell id="NFD3q7oHZrYZHhK99gPO-61" value="packed_Animal" style="swimlane;whiteSpace=wrap;html=1;strokeWidth=3;" parent="1" vertex="1">
          <mxGeometry x="800" y="10" width="230" height="550" as="geometry" />
        </mxCell>
        <mxCell id="NFD3q7oHZrYZHhK99gPO-62" value="" style="line;strokeWidth=4;html=1;perimeter=backbonePerimeter;points=[];outlineConnect=0;" parent="NFD3q7oHZrYZHhK99gPO-61" vertex="1">
          <mxGeometry y="200" width="230" height="10" as="geometry" />
        </mxCell>
        <mxCell id="NFD3q7oHZrYZHhK99gPO-83" value="name: String" style="text;html=1;align=center;verticalAlign=middle;whiteSpace=wrap;rounded=0;fontStyle=0;fontSize=17;" parent="NFD3q7oHZrYZHhK99gPO-61" vertex="1">
          <mxGeometry x="45" y="30" width="140" height="30" as="geometry" />
        </mxCell>
        <mxCell id="NFD3q7oHZrYZHhK99gPO-91" value="livePlace:String" style="text;html=1;align=center;verticalAlign=middle;whiteSpace=wrap;rounded=0;fontSize=17;fontStyle=0" parent="NFD3q7oHZrYZHhK99gPO-61" vertex="1">
          <mxGeometry x="60" y="60" width="110" height="30" as="geometry" />
        </mxCell>
        <mxCell id="NFD3q7oHZrYZHhK99gPO-92" value="horses:List&amp;lt;Horse&amp;gt;" style="text;html=1;align=center;verticalAlign=middle;whiteSpace=wrap;rounded=0;fontSize=17;" parent="NFD3q7oHZrYZHhK99gPO-61" vertex="1">
          <mxGeometry x="85" y="90" width="60" height="30" as="geometry" />
        </mxCell>
        <mxCell id="NFD3q7oHZrYZHhK99gPO-93" value="dogs:List&amp;lt;dog&amp;gt;" style="text;html=1;align=center;verticalAlign=middle;whiteSpace=wrap;rounded=0;fontSize=17;" parent="NFD3q7oHZrYZHhK99gPO-61" vertex="1">
          <mxGeometry x="85" y="120" width="60" height="30" as="geometry" />
        </mxCell>
        <mxCell id="NFD3q7oHZrYZHhK99gPO-94" value="hamsters:List&amp;lt;hamster&amp;gt;" style="text;html=1;align=center;verticalAlign=middle;whiteSpace=wrap;rounded=0;fontSize=17;" parent="NFD3q7oHZrYZHhK99gPO-61" vertex="1">
          <mxGeometry x="67" y="160" width="110" height="30" as="geometry" />
        </mxCell>
        <mxCell id="NFD3q7oHZrYZHhK99gPO-114" value="get_Name(): String" style="text;html=1;align=center;verticalAlign=middle;whiteSpace=wrap;rounded=0;fontSize=16;" parent="NFD3q7oHZrYZHhK99gPO-61" vertex="1">
          <mxGeometry x="40" y="220" width="150" height="30" as="geometry" />
        </mxCell>
        <mxCell id="NFD3q7oHZrYZHhK99gPO-151" value="&lt;font style=&quot;font-size: 15px;&quot;&gt;set_Name(String):void&lt;/font&gt;" style="text;html=1;align=center;verticalAlign=middle;whiteSpace=wrap;rounded=0;" parent="NFD3q7oHZrYZHhK99gPO-61" vertex="1">
          <mxGeometry x="30" y="250" width="170" height="30" as="geometry" />
        </mxCell>
        <mxCell id="NFD3q7oHZrYZHhK99gPO-153" value="add_Dog(Dog): void" style="text;html=1;align=center;verticalAlign=middle;whiteSpace=wrap;rounded=0;fontSize=14;" parent="NFD3q7oHZrYZHhK99gPO-61" vertex="1">
          <mxGeometry x="32.5" y="350" width="160" height="30" as="geometry" />
        </mxCell>
        <mxCell id="NFD3q7oHZrYZHhK99gPO-154" value="&lt;font style=&quot;font-size: 14px;&quot;&gt;remove_Dog(Dog): void&lt;/font&gt;" style="text;html=1;align=center;verticalAlign=middle;whiteSpace=wrap;rounded=0;" parent="NFD3q7oHZrYZHhK99gPO-61" vertex="1">
          <mxGeometry x="15" y="380" width="200" height="30" as="geometry" />
        </mxCell>
        <mxCell id="NFD3q7oHZrYZHhK99gPO-155" value="add_Cat(Cat): void" style="text;html=1;align=center;verticalAlign=middle;whiteSpace=wrap;rounded=0;fontSize=14;" parent="NFD3q7oHZrYZHhK99gPO-61" vertex="1">
          <mxGeometry x="42" y="410" width="160" height="30" as="geometry" />
        </mxCell>
        <mxCell id="NFD3q7oHZrYZHhK99gPO-156" value="&lt;font style=&quot;font-size: 14px;&quot;&gt;remove_Cat(Cat): void&lt;/font&gt;" style="text;html=1;align=center;verticalAlign=middle;whiteSpace=wrap;rounded=0;" parent="NFD3q7oHZrYZHhK99gPO-61" vertex="1">
          <mxGeometry x="20" y="440" width="200" height="30" as="geometry" />
        </mxCell>
        <mxCell id="NFD3q7oHZrYZHhK99gPO-157" value="add_Hamster(Hamster): void" style="text;html=1;align=center;verticalAlign=middle;whiteSpace=wrap;rounded=0;fontSize=14;" parent="NFD3q7oHZrYZHhK99gPO-61" vertex="1">
          <mxGeometry x="27.5" y="470" width="185" height="30" as="geometry" />
        </mxCell>
        <mxCell id="NFD3q7oHZrYZHhK99gPO-158" value="&lt;font style=&quot;font-size: 14px;&quot;&gt;remove_Hamster(Hamster): void&lt;/font&gt;" style="text;html=1;align=center;verticalAlign=middle;whiteSpace=wrap;rounded=0;" parent="NFD3q7oHZrYZHhK99gPO-61" vertex="1">
          <mxGeometry y="510" width="225" height="30" as="geometry" />
        </mxCell>
        <mxCell id="YiFgMZvu4_gDKiSUMBqT-20" value="get_HOME_ID(string): void" style="text;html=1;align=center;verticalAlign=middle;whiteSpace=wrap;rounded=0;fontSize=13;" vertex="1" parent="NFD3q7oHZrYZHhK99gPO-61">
          <mxGeometry x="25" y="280" width="180" height="30" as="geometry" />
        </mxCell>
        <mxCell id="YiFgMZvu4_gDKiSUMBqT-21" value="set_HOME_ID(string): void" style="text;html=1;align=center;verticalAlign=middle;whiteSpace=wrap;rounded=0;fontSize=14;" vertex="1" parent="NFD3q7oHZrYZHhK99gPO-61">
          <mxGeometry x="22.5" y="320" width="190" height="30" as="geometry" />
        </mxCell>
        <mxCell id="NFD3q7oHZrYZHhK99gPO-80" style="edgeStyle=orthogonalEdgeStyle;rounded=0;orthogonalLoop=1;jettySize=auto;html=1;exitX=0.467;exitY=-0.002;exitDx=0;exitDy=0;exitPerimeter=0;" parent="1" source="NFD3q7oHZrYZHhK99gPO-63" edge="1">
          <mxGeometry relative="1" as="geometry">
            <mxPoint x="140" y="550" as="targetPoint" />
            <mxPoint x="145" y="680" as="sourcePoint" />
            <Array as="points">
              <mxPoint x="140" y="739" />
            </Array>
          </mxGeometry>
        </mxCell>
        <mxCell id="NFD3q7oHZrYZHhK99gPO-63" value="CATS" style="swimlane;whiteSpace=wrap;html=1;strokeWidth=2;" parent="1" vertex="1">
          <mxGeometry x="50" y="750" width="210" height="340" as="geometry" />
        </mxCell>
        <mxCell id="NFD3q7oHZrYZHhK99gPO-84" value="name: String" style="text;html=1;align=center;verticalAlign=middle;whiteSpace=wrap;rounded=0;fontStyle=0;fontSize=17;" parent="NFD3q7oHZrYZHhK99gPO-63" vertex="1">
          <mxGeometry x="30" y="30" width="140" height="30" as="geometry" />
        </mxCell>
        <mxCell id="NFD3q7oHZrYZHhK99gPO-115" value="" style="line;strokeWidth=2;html=1;perimeter=backbonePerimeter;points=[];outlineConnect=0;fontSize=12;" parent="NFD3q7oHZrYZHhK99gPO-63" vertex="1">
          <mxGeometry x="-5" y="160" width="210" height="10" as="geometry" />
        </mxCell>
        <mxCell id="NFD3q7oHZrYZHhK99gPO-120" value="get_Name(): String" style="text;html=1;align=center;verticalAlign=middle;whiteSpace=wrap;rounded=0;fontSize=16;" parent="NFD3q7oHZrYZHhK99gPO-63" vertex="1">
          <mxGeometry x="25" y="170" width="150" height="30" as="geometry" />
        </mxCell>
        <mxCell id="NFD3q7oHZrYZHhK99gPO-125" style="edgeStyle=orthogonalEdgeStyle;rounded=0;orthogonalLoop=1;jettySize=auto;html=1;exitX=0.5;exitY=1;exitDx=0;exitDy=0;" parent="NFD3q7oHZrYZHhK99gPO-63" source="NFD3q7oHZrYZHhK99gPO-120" target="NFD3q7oHZrYZHhK99gPO-120" edge="1">
          <mxGeometry relative="1" as="geometry" />
        </mxCell>
        <mxCell id="NFD3q7oHZrYZHhK99gPO-166" value="&lt;font style=&quot;font-size: 15px;&quot;&gt;date_Birth:Date_Time&lt;/font&gt;" style="text;html=1;align=center;verticalAlign=middle;whiteSpace=wrap;rounded=0;" parent="NFD3q7oHZrYZHhK99gPO-63" vertex="1">
          <mxGeometry x="15" y="60" width="180" height="30" as="geometry" />
        </mxCell>
        <mxCell id="NFD3q7oHZrYZHhK99gPO-169" value="&lt;font style=&quot;font-size: 16px;&quot;&gt;commands:String&lt;/font&gt;" style="text;html=1;align=center;verticalAlign=middle;whiteSpace=wrap;rounded=0;" parent="NFD3q7oHZrYZHhK99gPO-63" vertex="1">
          <mxGeometry x="15" y="90" width="170" height="30" as="geometry" />
        </mxCell>
        <mxCell id="NFD3q7oHZrYZHhK99gPO-179" value="set_Name(String): void" style="text;html=1;align=center;verticalAlign=middle;whiteSpace=wrap;rounded=0;fontSize=15;" parent="NFD3q7oHZrYZHhK99gPO-63" vertex="1">
          <mxGeometry x="10" y="200" width="180" height="30" as="geometry" />
        </mxCell>
        <mxCell id="NFD3q7oHZrYZHhK99gPO-184" value="&lt;font style=&quot;font-size: 15px;&quot;&gt;get_Date_Birth():Date_Time&lt;/font&gt;" style="text;html=1;align=center;verticalAlign=middle;whiteSpace=wrap;rounded=0;" parent="NFD3q7oHZrYZHhK99gPO-63" vertex="1">
          <mxGeometry x="15" y="230" width="180" height="30" as="geometry" />
        </mxCell>
        <mxCell id="NFD3q7oHZrYZHhK99gPO-209" value="&lt;font style=&quot;font-size: 15px;&quot;&gt;set_Date_Birth(Date_Time)&lt;/font&gt;" style="text;html=1;align=center;verticalAlign=middle;whiteSpace=wrap;rounded=0;" parent="NFD3q7oHZrYZHhK99gPO-63" vertex="1">
          <mxGeometry x="15" y="260" width="180" height="30" as="geometry" />
        </mxCell>
        <mxCell id="NFD3q7oHZrYZHhK99gPO-214" value="&lt;font style=&quot;font-size: 16px;&quot;&gt;get_Commands():String&lt;/font&gt;" style="text;html=1;align=center;verticalAlign=middle;whiteSpace=wrap;rounded=0;" parent="NFD3q7oHZrYZHhK99gPO-63" vertex="1">
          <mxGeometry x="20" y="290" width="170" height="30" as="geometry" />
        </mxCell>
        <mxCell id="YiFgMZvu4_gDKiSUMBqT-15" value="&lt;font style=&quot;font-size: 15px;&quot;&gt;HOME_ID&lt;/font&gt;" style="text;html=1;align=center;verticalAlign=middle;whiteSpace=wrap;rounded=0;" vertex="1" parent="NFD3q7oHZrYZHhK99gPO-63">
          <mxGeometry x="30" y="120" width="130" height="30" as="geometry" />
        </mxCell>
        <mxCell id="NFD3q7oHZrYZHhK99gPO-79" style="edgeStyle=orthogonalEdgeStyle;rounded=0;orthogonalLoop=1;jettySize=auto;html=1;" parent="1" source="NFD3q7oHZrYZHhK99gPO-64" edge="1">
          <mxGeometry relative="1" as="geometry">
            <mxPoint x="250" y="560" as="targetPoint" />
            <Array as="points">
              <mxPoint x="405" y="610" />
              <mxPoint x="251" y="610" />
            </Array>
          </mxGeometry>
        </mxCell>
        <mxCell id="NFD3q7oHZrYZHhK99gPO-64" value="DOGS" style="swimlane;whiteSpace=wrap;html=1;strokeWidth=2;" parent="1" vertex="1">
          <mxGeometry x="300" y="750" width="210" height="340" as="geometry" />
        </mxCell>
        <mxCell id="NFD3q7oHZrYZHhK99gPO-85" value="name: String" style="text;html=1;align=center;verticalAlign=middle;whiteSpace=wrap;rounded=0;fontStyle=0;fontSize=17;" parent="NFD3q7oHZrYZHhK99gPO-64" vertex="1">
          <mxGeometry x="35" y="30" width="140" height="30" as="geometry" />
        </mxCell>
        <mxCell id="NFD3q7oHZrYZHhK99gPO-116" value="" style="line;strokeWidth=2;html=1;perimeter=backbonePerimeter;points=[];outlineConnect=0;" parent="NFD3q7oHZrYZHhK99gPO-64" vertex="1">
          <mxGeometry y="160" width="210" height="10" as="geometry" />
        </mxCell>
        <mxCell id="NFD3q7oHZrYZHhK99gPO-121" value="get_Name(): String" style="text;html=1;align=center;verticalAlign=middle;whiteSpace=wrap;rounded=0;fontSize=16;" parent="NFD3q7oHZrYZHhK99gPO-64" vertex="1">
          <mxGeometry x="35" y="170" width="150" height="30" as="geometry" />
        </mxCell>
        <mxCell id="NFD3q7oHZrYZHhK99gPO-165" value="&lt;font style=&quot;font-size: 15px;&quot;&gt;date_Birth:Date_Time&lt;/font&gt;" style="text;html=1;align=center;verticalAlign=middle;whiteSpace=wrap;rounded=0;" parent="NFD3q7oHZrYZHhK99gPO-64" vertex="1">
          <mxGeometry x="25" y="60" width="180" height="30" as="geometry" />
        </mxCell>
        <mxCell id="NFD3q7oHZrYZHhK99gPO-170" value="&lt;font style=&quot;font-size: 16px;&quot;&gt;commands:String&lt;/font&gt;" style="text;html=1;align=center;verticalAlign=middle;whiteSpace=wrap;rounded=0;" parent="NFD3q7oHZrYZHhK99gPO-64" vertex="1">
          <mxGeometry x="20" y="90" width="170" height="30" as="geometry" />
        </mxCell>
        <mxCell id="NFD3q7oHZrYZHhK99gPO-180" value="set_Name(String): void" style="text;html=1;align=center;verticalAlign=middle;whiteSpace=wrap;rounded=0;fontSize=15;" parent="NFD3q7oHZrYZHhK99gPO-64" vertex="1">
          <mxGeometry x="15" y="200" width="180" height="30" as="geometry" />
        </mxCell>
        <mxCell id="NFD3q7oHZrYZHhK99gPO-205" value="&lt;font style=&quot;font-size: 15px;&quot;&gt;get_Date_Birth():Date_Time&lt;/font&gt;" style="text;html=1;align=center;verticalAlign=middle;whiteSpace=wrap;rounded=0;" parent="NFD3q7oHZrYZHhK99gPO-64" vertex="1">
          <mxGeometry x="15" y="230" width="180" height="30" as="geometry" />
        </mxCell>
        <mxCell id="NFD3q7oHZrYZHhK99gPO-210" value="&lt;font style=&quot;font-size: 15px;&quot;&gt;set_Date_Birth(Date_Time)&lt;/font&gt;" style="text;html=1;align=center;verticalAlign=middle;whiteSpace=wrap;rounded=0;" parent="NFD3q7oHZrYZHhK99gPO-64" vertex="1">
          <mxGeometry x="15" y="260" width="180" height="30" as="geometry" />
        </mxCell>
        <mxCell id="NFD3q7oHZrYZHhK99gPO-215" value="&lt;font style=&quot;font-size: 16px;&quot;&gt;get_Commands():String&lt;/font&gt;" style="text;html=1;align=center;verticalAlign=middle;whiteSpace=wrap;rounded=0;" parent="NFD3q7oHZrYZHhK99gPO-64" vertex="1">
          <mxGeometry x="15" y="290" width="170" height="30" as="geometry" />
        </mxCell>
        <mxCell id="YiFgMZvu4_gDKiSUMBqT-16" value="&lt;font style=&quot;font-size: 15px;&quot;&gt;HOME_ID&lt;/font&gt;" style="text;html=1;align=center;verticalAlign=middle;whiteSpace=wrap;rounded=0;" vertex="1" parent="NFD3q7oHZrYZHhK99gPO-64">
          <mxGeometry x="35" y="120" width="130" height="30" as="geometry" />
        </mxCell>
        <mxCell id="NFD3q7oHZrYZHhK99gPO-78" style="edgeStyle=orthogonalEdgeStyle;rounded=0;orthogonalLoop=1;jettySize=auto;html=1;" parent="1" source="NFD3q7oHZrYZHhK99gPO-65" edge="1">
          <mxGeometry relative="1" as="geometry">
            <mxPoint x="320" y="460" as="targetPoint" />
            <Array as="points">
              <mxPoint x="635" y="600" />
              <mxPoint x="540" y="600" />
              <mxPoint x="540" y="520" />
              <mxPoint x="410" y="520" />
              <mxPoint x="410" y="460" />
            </Array>
          </mxGeometry>
        </mxCell>
        <mxCell id="NFD3q7oHZrYZHhK99gPO-65" value="HAMSTERS" style="swimlane;whiteSpace=wrap;html=1;strokeWidth=2;" parent="1" vertex="1">
          <mxGeometry x="540" y="750" width="210" height="350" as="geometry" />
        </mxCell>
        <mxCell id="NFD3q7oHZrYZHhK99gPO-86" value="name: String" style="text;html=1;align=center;verticalAlign=middle;whiteSpace=wrap;rounded=0;fontStyle=0;fontSize=17;" parent="NFD3q7oHZrYZHhK99gPO-65" vertex="1">
          <mxGeometry x="35" y="30" width="140" height="30" as="geometry" />
        </mxCell>
        <mxCell id="NFD3q7oHZrYZHhK99gPO-117" value="" style="line;strokeWidth=2;html=1;perimeter=backbonePerimeter;points=[];outlineConnect=0;" parent="NFD3q7oHZrYZHhK99gPO-65" vertex="1">
          <mxGeometry y="160" width="210" height="10" as="geometry" />
        </mxCell>
        <mxCell id="NFD3q7oHZrYZHhK99gPO-122" value="get_Name(): String" style="text;html=1;align=center;verticalAlign=middle;whiteSpace=wrap;rounded=0;fontSize=16;" parent="NFD3q7oHZrYZHhK99gPO-65" vertex="1">
          <mxGeometry x="35" y="170" width="150" height="30" as="geometry" />
        </mxCell>
        <mxCell id="NFD3q7oHZrYZHhK99gPO-159" value="&lt;font style=&quot;font-size: 15px;&quot;&gt;date_Birth:Date_Time&lt;/font&gt;" style="text;html=1;align=center;verticalAlign=middle;whiteSpace=wrap;rounded=0;" parent="NFD3q7oHZrYZHhK99gPO-65" vertex="1">
          <mxGeometry x="15" y="60" width="180" height="30" as="geometry" />
        </mxCell>
        <mxCell id="NFD3q7oHZrYZHhK99gPO-171" value="&lt;font style=&quot;font-size: 16px;&quot;&gt;commands:String&lt;/font&gt;" style="text;html=1;align=center;verticalAlign=middle;whiteSpace=wrap;rounded=0;" parent="NFD3q7oHZrYZHhK99gPO-65" vertex="1">
          <mxGeometry x="15" y="90" width="170" height="30" as="geometry" />
        </mxCell>
        <mxCell id="NFD3q7oHZrYZHhK99gPO-181" value="set_Name(String): void" style="text;html=1;align=center;verticalAlign=middle;whiteSpace=wrap;rounded=0;fontSize=15;" parent="NFD3q7oHZrYZHhK99gPO-65" vertex="1">
          <mxGeometry x="20" y="200" width="180" height="30" as="geometry" />
        </mxCell>
        <mxCell id="NFD3q7oHZrYZHhK99gPO-206" value="&lt;font style=&quot;font-size: 15px;&quot;&gt;get_Date_Birth():Date_Time&lt;/font&gt;" style="text;html=1;align=center;verticalAlign=middle;whiteSpace=wrap;rounded=0;" parent="NFD3q7oHZrYZHhK99gPO-65" vertex="1">
          <mxGeometry x="15" y="230" width="180" height="30" as="geometry" />
        </mxCell>
        <mxCell id="NFD3q7oHZrYZHhK99gPO-211" value="&lt;font style=&quot;font-size: 15px;&quot;&gt;set_Date_Birth(Date_Time)&lt;/font&gt;" style="text;html=1;align=center;verticalAlign=middle;whiteSpace=wrap;rounded=0;" parent="NFD3q7oHZrYZHhK99gPO-65" vertex="1">
          <mxGeometry x="20" y="260" width="180" height="30" as="geometry" />
        </mxCell>
        <mxCell id="NFD3q7oHZrYZHhK99gPO-216" value="&lt;font style=&quot;font-size: 16px;&quot;&gt;get_Commands():String&lt;/font&gt;" style="text;html=1;align=center;verticalAlign=middle;whiteSpace=wrap;rounded=0;" parent="NFD3q7oHZrYZHhK99gPO-65" vertex="1">
          <mxGeometry x="20" y="290" width="170" height="30" as="geometry" />
        </mxCell>
        <mxCell id="YiFgMZvu4_gDKiSUMBqT-17" value="&lt;font style=&quot;font-size: 15px;&quot;&gt;HOME_ID&lt;/font&gt;" style="text;html=1;align=center;verticalAlign=middle;whiteSpace=wrap;rounded=0;" vertex="1" parent="NFD3q7oHZrYZHhK99gPO-65">
          <mxGeometry x="45" y="120" width="130" height="30" as="geometry" />
        </mxCell>
        <mxCell id="NFD3q7oHZrYZHhK99gPO-76" style="edgeStyle=orthogonalEdgeStyle;rounded=0;orthogonalLoop=1;jettySize=auto;html=1;" parent="1" source="NFD3q7oHZrYZHhK99gPO-67" edge="1">
          <mxGeometry relative="1" as="geometry">
            <mxPoint x="1040" y="400" as="targetPoint" />
            <Array as="points">
              <mxPoint x="1140" y="400" />
            </Array>
          </mxGeometry>
        </mxCell>
        <mxCell id="NFD3q7oHZrYZHhK99gPO-67" value="HORSES" style="swimlane;whiteSpace=wrap;html=1;strokeWidth=2;" parent="1" vertex="1">
          <mxGeometry x="1020" y="740" width="220" height="350" as="geometry" />
        </mxCell>
        <mxCell id="NFD3q7oHZrYZHhK99gPO-88" value="name: String" style="text;html=1;align=center;verticalAlign=middle;whiteSpace=wrap;rounded=0;fontStyle=0;fontSize=17;" parent="NFD3q7oHZrYZHhK99gPO-67" vertex="1">
          <mxGeometry x="40" y="30" width="140" height="30" as="geometry" />
        </mxCell>
        <mxCell id="NFD3q7oHZrYZHhK99gPO-119" value="" style="line;strokeWidth=2;html=1;perimeter=backbonePerimeter;points=[];outlineConnect=0;" parent="NFD3q7oHZrYZHhK99gPO-67" vertex="1">
          <mxGeometry y="170" width="220" height="10" as="geometry" />
        </mxCell>
        <mxCell id="NFD3q7oHZrYZHhK99gPO-124" value="get_Name(): String" style="text;html=1;align=center;verticalAlign=middle;whiteSpace=wrap;rounded=0;fontSize=16;" parent="NFD3q7oHZrYZHhK99gPO-67" vertex="1">
          <mxGeometry x="25" y="180" width="150" height="30" as="geometry" />
        </mxCell>
        <mxCell id="NFD3q7oHZrYZHhK99gPO-168" value="&lt;font style=&quot;font-size: 15px;&quot;&gt;date_Birth:Date_Time&lt;/font&gt;" style="text;html=1;align=center;verticalAlign=middle;whiteSpace=wrap;rounded=0;" parent="NFD3q7oHZrYZHhK99gPO-67" vertex="1">
          <mxGeometry x="20" y="60" width="180" height="30" as="geometry" />
        </mxCell>
        <mxCell id="NFD3q7oHZrYZHhK99gPO-173" value="&lt;font style=&quot;font-size: 16px;&quot;&gt;commands:String&lt;/font&gt;" style="text;html=1;align=center;verticalAlign=middle;whiteSpace=wrap;rounded=0;" parent="NFD3q7oHZrYZHhK99gPO-67" vertex="1">
          <mxGeometry x="25" y="90" width="170" height="30" as="geometry" />
        </mxCell>
        <mxCell id="NFD3q7oHZrYZHhK99gPO-178" value="&lt;font style=&quot;font-size: 16px;&quot;&gt;color::String&lt;/font&gt;" style="text;html=1;align=center;verticalAlign=middle;whiteSpace=wrap;rounded=0;" parent="NFD3q7oHZrYZHhK99gPO-67" vertex="1">
          <mxGeometry x="25" y="120" width="160" height="30" as="geometry" />
        </mxCell>
        <mxCell id="NFD3q7oHZrYZHhK99gPO-183" value="set_Name(String): void" style="text;html=1;align=center;verticalAlign=middle;whiteSpace=wrap;rounded=0;fontSize=15;" parent="NFD3q7oHZrYZHhK99gPO-67" vertex="1">
          <mxGeometry x="15" y="210" width="180" height="30" as="geometry" />
        </mxCell>
        <mxCell id="NFD3q7oHZrYZHhK99gPO-208" value="&lt;font style=&quot;font-size: 15px;&quot;&gt;get_Date_Birth():Date_Time&lt;/font&gt;" style="text;html=1;align=center;verticalAlign=middle;whiteSpace=wrap;rounded=0;" parent="NFD3q7oHZrYZHhK99gPO-67" vertex="1">
          <mxGeometry x="25" y="240" width="180" height="30" as="geometry" />
        </mxCell>
        <mxCell id="NFD3q7oHZrYZHhK99gPO-213" value="&lt;font style=&quot;font-size: 15px;&quot;&gt;set_Date_Birth(Date_Time)&lt;/font&gt;" style="text;html=1;align=center;verticalAlign=middle;whiteSpace=wrap;rounded=0;" parent="NFD3q7oHZrYZHhK99gPO-67" vertex="1">
          <mxGeometry x="20" y="270" width="180" height="30" as="geometry" />
        </mxCell>
        <mxCell id="NFD3q7oHZrYZHhK99gPO-218" value="&lt;font style=&quot;font-size: 16px;&quot;&gt;get_Commands():String&lt;/font&gt;" style="text;html=1;align=center;verticalAlign=middle;whiteSpace=wrap;rounded=0;" parent="NFD3q7oHZrYZHhK99gPO-67" vertex="1">
          <mxGeometry x="25" y="300" width="170" height="30" as="geometry" />
        </mxCell>
        <mxCell id="NFD3q7oHZrYZHhK99gPO-77" style="edgeStyle=orthogonalEdgeStyle;rounded=0;orthogonalLoop=1;jettySize=auto;html=1;exitX=0.645;exitY=-0.008;exitDx=0;exitDy=0;exitPerimeter=0;" parent="1" source="NFD3q7oHZrYZHhK99gPO-68" edge="1">
          <mxGeometry relative="1" as="geometry">
            <mxPoint x="925" y="560" as="targetPoint" />
            <mxPoint x="940" y="730" as="sourcePoint" />
            <Array as="points">
              <mxPoint x="925" y="737" />
              <mxPoint x="925" y="636" />
            </Array>
          </mxGeometry>
        </mxCell>
        <mxCell id="NFD3q7oHZrYZHhK99gPO-68" value="CAMELS" style="swimlane;whiteSpace=wrap;html=1;strokeWidth=2;" parent="1" vertex="1">
          <mxGeometry x="780" y="730" width="220" height="350" as="geometry" />
        </mxCell>
        <mxCell id="NFD3q7oHZrYZHhK99gPO-87" value="name: String" style="text;html=1;align=center;verticalAlign=middle;whiteSpace=wrap;rounded=0;fontStyle=0;fontSize=17;" parent="NFD3q7oHZrYZHhK99gPO-68" vertex="1">
          <mxGeometry x="45" y="30" width="140" height="30" as="geometry" />
        </mxCell>
        <mxCell id="NFD3q7oHZrYZHhK99gPO-118" value="" style="line;strokeWidth=2;html=1;perimeter=backbonePerimeter;points=[];outlineConnect=0;" parent="NFD3q7oHZrYZHhK99gPO-68" vertex="1">
          <mxGeometry y="170" width="220" height="10" as="geometry" />
        </mxCell>
        <mxCell id="NFD3q7oHZrYZHhK99gPO-123" value="get_Name(): String" style="text;html=1;align=center;verticalAlign=middle;whiteSpace=wrap;rounded=0;fontSize=16;" parent="NFD3q7oHZrYZHhK99gPO-68" vertex="1">
          <mxGeometry x="35" y="180" width="150" height="30" as="geometry" />
        </mxCell>
        <mxCell id="NFD3q7oHZrYZHhK99gPO-167" value="&lt;font style=&quot;font-size: 15px;&quot;&gt;date_Birth:Date_Time&lt;/font&gt;" style="text;html=1;align=center;verticalAlign=middle;whiteSpace=wrap;rounded=0;" parent="NFD3q7oHZrYZHhK99gPO-68" vertex="1">
          <mxGeometry x="20" y="60" width="180" height="30" as="geometry" />
        </mxCell>
        <mxCell id="NFD3q7oHZrYZHhK99gPO-172" value="&lt;font style=&quot;font-size: 16px;&quot;&gt;commands:String&lt;/font&gt;" style="text;html=1;align=center;verticalAlign=middle;whiteSpace=wrap;rounded=0;" parent="NFD3q7oHZrYZHhK99gPO-68" vertex="1">
          <mxGeometry x="20" y="90" width="170" height="30" as="geometry" />
        </mxCell>
        <mxCell id="NFD3q7oHZrYZHhK99gPO-182" value="set_Name(String): void" style="text;html=1;align=center;verticalAlign=middle;whiteSpace=wrap;rounded=0;fontSize=15;" parent="NFD3q7oHZrYZHhK99gPO-68" vertex="1">
          <mxGeometry x="15" y="210" width="180" height="30" as="geometry" />
        </mxCell>
        <mxCell id="NFD3q7oHZrYZHhK99gPO-207" value="&lt;font style=&quot;font-size: 15px;&quot;&gt;get_Date_Birth():Date_Time&lt;/font&gt;" style="text;html=1;align=center;verticalAlign=middle;whiteSpace=wrap;rounded=0;" parent="NFD3q7oHZrYZHhK99gPO-68" vertex="1">
          <mxGeometry x="20" y="240" width="180" height="30" as="geometry" />
        </mxCell>
        <mxCell id="NFD3q7oHZrYZHhK99gPO-212" value="&lt;font style=&quot;font-size: 15px;&quot;&gt;set_Date_Birth(Date_Time)&lt;/font&gt;" style="text;html=1;align=center;verticalAlign=middle;whiteSpace=wrap;rounded=0;" parent="NFD3q7oHZrYZHhK99gPO-68" vertex="1">
          <mxGeometry x="25" y="270" width="180" height="30" as="geometry" />
        </mxCell>
        <mxCell id="NFD3q7oHZrYZHhK99gPO-217" value="&lt;font style=&quot;font-size: 16px;&quot;&gt;get_Commands():String&lt;/font&gt;" style="text;html=1;align=center;verticalAlign=middle;whiteSpace=wrap;rounded=0;" parent="NFD3q7oHZrYZHhK99gPO-68" vertex="1">
          <mxGeometry x="30" y="300" width="170" height="30" as="geometry" />
        </mxCell>
        <mxCell id="YiFgMZvu4_gDKiSUMBqT-18" value="&lt;font style=&quot;font-size: 15px;&quot;&gt;HOME_ID&lt;/font&gt;" style="text;html=1;align=center;verticalAlign=middle;whiteSpace=wrap;rounded=0;" vertex="1" parent="NFD3q7oHZrYZHhK99gPO-68">
          <mxGeometry x="45" y="120" width="130" height="30" as="geometry" />
        </mxCell>
        <mxCell id="NFD3q7oHZrYZHhK99gPO-74" value="" style="endArrow=classic;html=1;rounded=0;" parent="1" edge="1">
          <mxGeometry width="50" height="50" relative="1" as="geometry">
            <mxPoint x="290" y="160" as="sourcePoint" />
            <mxPoint x="450" y="160" as="targetPoint" />
            <Array as="points">
              <mxPoint x="380" y="160" />
            </Array>
          </mxGeometry>
        </mxCell>
        <mxCell id="NFD3q7oHZrYZHhK99gPO-75" value="" style="endArrow=classic;html=1;rounded=0;exitX=0;exitY=0.75;exitDx=0;exitDy=0;" parent="1" source="NFD3q7oHZrYZHhK99gPO-61" edge="1">
          <mxGeometry width="50" height="50" relative="1" as="geometry">
            <mxPoint x="780" y="360" as="sourcePoint" />
            <mxPoint x="680" y="160" as="targetPoint" />
            <Array as="points">
              <mxPoint x="760" y="160" />
              <mxPoint x="720" y="160" />
            </Array>
          </mxGeometry>
        </mxCell>
        <mxCell id="YiFgMZvu4_gDKiSUMBqT-14" style="edgeStyle=orthogonalEdgeStyle;rounded=0;orthogonalLoop=1;jettySize=auto;html=1;" edge="1" parent="1" source="YiFgMZvu4_gDKiSUMBqT-1">
          <mxGeometry relative="1" as="geometry">
            <mxPoint x="1060" y="310" as="targetPoint" />
            <Array as="points">
              <mxPoint x="1380" y="310" />
              <mxPoint x="1381" y="310" />
            </Array>
          </mxGeometry>
        </mxCell>
        <mxCell id="YiFgMZvu4_gDKiSUMBqT-1" value="DANKEYS" style="swimlane;whiteSpace=wrap;html=1;strokeWidth=2;" vertex="1" parent="1">
          <mxGeometry x="1270" y="740" width="220" height="350" as="geometry" />
        </mxCell>
        <mxCell id="YiFgMZvu4_gDKiSUMBqT-2" value="name: String" style="text;html=1;align=center;verticalAlign=middle;whiteSpace=wrap;rounded=0;fontStyle=0;fontSize=17;" vertex="1" parent="YiFgMZvu4_gDKiSUMBqT-1">
          <mxGeometry x="40" y="30" width="140" height="30" as="geometry" />
        </mxCell>
        <mxCell id="YiFgMZvu4_gDKiSUMBqT-3" value="" style="line;strokeWidth=2;html=1;perimeter=backbonePerimeter;points=[];outlineConnect=0;" vertex="1" parent="YiFgMZvu4_gDKiSUMBqT-1">
          <mxGeometry y="170" width="220" height="10" as="geometry" />
        </mxCell>
        <mxCell id="YiFgMZvu4_gDKiSUMBqT-4" value="get_Name(): String" style="text;html=1;align=center;verticalAlign=middle;whiteSpace=wrap;rounded=0;fontSize=16;" vertex="1" parent="YiFgMZvu4_gDKiSUMBqT-1">
          <mxGeometry x="25" y="180" width="150" height="30" as="geometry" />
        </mxCell>
        <mxCell id="YiFgMZvu4_gDKiSUMBqT-5" value="&lt;font style=&quot;font-size: 15px;&quot;&gt;date_Birth:Date_Time&lt;/font&gt;" style="text;html=1;align=center;verticalAlign=middle;whiteSpace=wrap;rounded=0;" vertex="1" parent="YiFgMZvu4_gDKiSUMBqT-1">
          <mxGeometry x="20" y="60" width="180" height="30" as="geometry" />
        </mxCell>
        <mxCell id="YiFgMZvu4_gDKiSUMBqT-6" value="&lt;font style=&quot;font-size: 16px;&quot;&gt;commands:String&lt;/font&gt;" style="text;html=1;align=center;verticalAlign=middle;whiteSpace=wrap;rounded=0;" vertex="1" parent="YiFgMZvu4_gDKiSUMBqT-1">
          <mxGeometry x="25" y="90" width="170" height="30" as="geometry" />
        </mxCell>
        <mxCell id="YiFgMZvu4_gDKiSUMBqT-7" value="&lt;font style=&quot;font-size: 16px;&quot;&gt;color::String&lt;/font&gt;" style="text;html=1;align=center;verticalAlign=middle;whiteSpace=wrap;rounded=0;" vertex="1" parent="YiFgMZvu4_gDKiSUMBqT-1">
          <mxGeometry x="25" y="120" width="160" height="30" as="geometry" />
        </mxCell>
        <mxCell id="YiFgMZvu4_gDKiSUMBqT-8" value="set_Name(String): void" style="text;html=1;align=center;verticalAlign=middle;whiteSpace=wrap;rounded=0;fontSize=15;" vertex="1" parent="YiFgMZvu4_gDKiSUMBqT-1">
          <mxGeometry x="15" y="210" width="180" height="30" as="geometry" />
        </mxCell>
        <mxCell id="YiFgMZvu4_gDKiSUMBqT-9" value="&lt;font style=&quot;font-size: 15px;&quot;&gt;get_Date_Birth():Date_Time&lt;/font&gt;" style="text;html=1;align=center;verticalAlign=middle;whiteSpace=wrap;rounded=0;" vertex="1" parent="YiFgMZvu4_gDKiSUMBqT-1">
          <mxGeometry x="25" y="240" width="180" height="30" as="geometry" />
        </mxCell>
        <mxCell id="YiFgMZvu4_gDKiSUMBqT-10" value="&lt;font style=&quot;font-size: 15px;&quot;&gt;set_Date_Birth(Date_Time)&lt;/font&gt;" style="text;html=1;align=center;verticalAlign=middle;whiteSpace=wrap;rounded=0;" vertex="1" parent="YiFgMZvu4_gDKiSUMBqT-1">
          <mxGeometry x="20" y="270" width="180" height="30" as="geometry" />
        </mxCell>
        <mxCell id="YiFgMZvu4_gDKiSUMBqT-11" value="&lt;font style=&quot;font-size: 16px;&quot;&gt;get_Commands():String&lt;/font&gt;" style="text;html=1;align=center;verticalAlign=middle;whiteSpace=wrap;rounded=0;" vertex="1" parent="YiFgMZvu4_gDKiSUMBqT-1">
          <mxGeometry x="25" y="300" width="170" height="30" as="geometry" />
        </mxCell>
      </root>
    </mxGraphModel>
  </diagram>
</mxfile>
